<svg width="110" height="77" viewBox="0 0 110 77" fill="none" xmlns="http://www.w3.org/2000/svg">
<path d="M1.57808 13.5785C2.31991 7.10627 7.59709 2.1213 14.0931 1.62909C43.7135 -0.61528 64.673 -0.50319 95.963 1.73421C102.24 2.18304 107.473 6.81593 108.349 13.0476C110.789 30.4185 110.372 45.1538 108.095 63.4384C107.295 69.8663 102.037 74.7989 95.5781 75.2913C65.3307 77.5975 44.4618 77.5421 14.2678 75.2892C7.69203 74.7985 2.3675 69.7157 1.62395 63.1637C-0.328388 45.9603 -0.727389 33.6931 1.57808 13.5785Z" fill="#C2185B"/>
<path d="M46 27C46 31.4183 42.4183 35 38 35C33.5817 35 30 31.4183 30 27C30 22.5817 33.5817 19 38 19C42.4183 19 46 22.5817 46 27Z" fill="white"/>
<path d="M81 27C81 31.4183 77.4183 35 73 35C68.5817 35 65 31.4183 65 27C65 22.5817 68.5817 19 73 19C77.4183 19 81 22.5817 81 27Z" fill="white"/>
<path d="M40.0507 49.0786C42.7327 46.5643 46.0191 44.7858 49.591 43.9157C53.1629 43.0457 56.899 43.1136 60.437 44.1128C63.9749 45.1121 67.1945 47.0088 69.7834 49.6189C72.3723 52.229 74.2427 55.464 75.2131 59.0099L69.3722 60.6084C68.6773 58.0691 67.3379 55.7525 65.484 53.8834C63.6301 52.0143 61.3245 50.6561 58.791 49.9405C56.2575 49.2249 53.582 49.1763 51.0242 49.7994C48.4663 50.4224 46.113 51.696 44.1923 53.4965L40.0507 49.0786Z" fill="white"/>
</svg>
